<?xml version="1.0" encoding="UTF-8"?>
<!DOCTYPE svg PUBLIC "-//W3C//DTD SVG 1.1//EN" "http://www.w3.org/Graphics/SVG/1.1/DTD/svg11.dtd">
<svg xmlns="http://www.w3.org/2000/svg" xmlns:xlink="http://www.w3.org/1999/xlink" version="1.1" width="250px" height="137px" viewBox="-0.5 -0.5 250 137"><defs/><g><path d="M 78 105 L 123 105 M 133 75 L 133 135 M 133 105 L 178 105" fill="none" stroke="#000000" stroke-miterlimit="10" transform="translate(128,0)scale(-1,1)translate(-128,0)" pointer-events="all"/><rect x="119" y="90" width="4" height="30" fill="#000000" stroke="#000000" transform="translate(128,0)scale(-1,1)translate(-128,0)" pointer-events="all"/><path d="M 120 30 L 140 30 L 108 30 L 128 30" fill="none" stroke="#000000" stroke-miterlimit="10" pointer-events="stroke"/><path d="M 20 30 L 0 30 L 0 105 L 78 105" fill="none" stroke="#000000" stroke-miterlimit="10" pointer-events="stroke"/><path d="M 20 30 L 38 30 L 42 20 L 50 40 L 58 20 L 66 40 L 74 20 L 82 40 L 90 20 L 98 40 L 102 30 L 120 30" fill="none" stroke="#000000" stroke-miterlimit="10" pointer-events="all"/><path d="M 228 30 L 248 30 L 248 105 L 178 105" fill="none" stroke="#000000" stroke-miterlimit="10" pointer-events="stroke"/><rect x="128" y="0" width="100" height="60" fill="none" stroke="none" pointer-events="all"/><path d="M 128 30 L 173 30 M 183 0 L 183 60 M 173 0 L 173 60 M 183 30 L 228 30" fill="none" stroke="#000000" stroke-miterlimit="10" pointer-events="all"/></g></svg>